# xmcd
#
# Track frame offsets:
#	150
#	13715
#	30961
#	44410
#	59802
#	73020
#	87627
#	102819
#	117139
#	130646
#	145408
#	159245
#
# Disc length: 2277 seconds
#
# Revision: 1
# Processed by: cddbd v1.5.2PL0 Copyright (c) Steve Scherf et al.
# Submitted via: audiograbber 1.83.01
#
DISCID=a008e30c
DTITLE=Stephanie - Schenk mir dein Herz
DYEAR=2006
DGENRE=Schlager
TTITLE0=1000 Engel
TTITLE1=Bereit zu fliegen
TTITLE2=Schmetterlinge lügen nicht 
TTITLE3=Du kannst die Liebe niemals halten 
TTITLE4=Sandkastenliebe
TTITLE5=Schenk mir dein Herz
TTITLE6=Hey du da oben
TTITLE7=Keine Zeit
TTITLE8=Mein erstes Liebeslied
TTITLE9=Küss mich zum Mond
TTITLE10=Dornröschen schläft nicht mehr
TTITLE11=Eine Mark für Charly
EXTD=
EXTT0=
EXTT1=
EXTT2=
EXTT3=
EXTT4=
EXTT5=
EXTT6=
EXTT7=
EXTT8=
EXTT9=
EXTT10=
EXTT11=
PLAYORDER=
